#!OML:ASF E:\Steps\Project 1\Capture day 1\Session 2\Subject.ASF
:FULLY-SPECIFIED
:DEGREES
112
root 16.6304 19.6554 20.6028 -154.779 -3.02762 178.341
lowerback -29.4322 -1.6499 -6.70753
upperback -0.283572 -0.404534 0.240413
thorax 15.2933 -0.87874 3.70858
lowerneck -4.85888 -0.913071 -0.712757
upperneck 17.2688 -2.56967 3.14111
head 6.07105 -1.40213 0.904487
rclavicle 2.93207e-015 -2.24627e-014
rhumerus -33.0484 -17.5403 -78.6164
rradius 30.5654
rwrist -1.00006
rhand -7.61887 -50.3694
rfingers 7.12502
rthumb 18.2755 -79.5309
lclavicle 2.93207e-015 -2.24627e-014
lhumerus -26.1507 -0.340251 84.3237
lradius 23.1155
lwrist -2.51944
lhand -21.4957 -11.4196
lfingers 7.12502
lthumb 4.89573 18.5038
rfemur -22.789 5.25138 20.8334
rtibia 7.96458
rfoot -20.5031 -4.3729
rtoes -14.8073
lfemur -23.5189 -9.07281 -21.0014
ltibia 10.7351
lfoot -8.71472 -0.517775
ltoes -18.4278
113
root 16.632 19.654 20.6075 -154.825 -3.04724 178.308
lowerback -29.3856 -1.64455 -6.70008
upperback -0.226493 -0.387473 0.208633
thorax 15.3369 -0.868621 3.67824
lowerneck -4.90493 -0.983532 -0.519205
upperneck 17.8989 -2.75945 2.99168
head 6.27858 -1.51301 0.807137
rclavicle 2.5842e-015 1.72943e-014
rhumerus -32.9913 -17.4415 -78.6944
rradius 30.6654
rwrist -1.12879
rhand -7.42437 -50.7583
rfingers 7.12502
rthumb 18.4626 -79.9021
lclavicle 2.5842e-015 1.72943e-014
lhumerus -26.1573 -0.367586 84.2624
lradius 23.3579
lwrist -2.29229
lhand -21.0318 -11.5371
lfingers 7.12502
lthumb 5.34365 18.3755
rfemur -22.9275 5.45923 20.7696
rtibia 8.30562
rfoot -20.6464 -4.64325
rtoes -14.5771
lfemur -23.6016 -9.1277 -21.0223
ltibia 10.9524
lfoot -8.80881 -0.540039
ltoes -17.8762
114
root 16.632 19.6526 20.6099 -154.938 -3.08179 178.327
lowerback -29.2501 -1.6154 -6.6097
upperback -0.173295 -0.372805 0.1854
thorax 15.3356 -0.851125 3.61267
lowerneck -4.94812 -1.01536 -0.296394
upperneck 18.3456 -2.87339 2.84623
head 6.42602 -1.57888 0.71179
rclavicle 6.60959e-015 8.54774e-015
rhumerus -32.9337 -17.1455 -78.8708
rradius 30.8604
rwrist -1.49195
rhand -8.18864 -50.4605
rfingers 7.12502
rthumb 17.7273 -79.6724
lclavicle 6.60959e-015 8.54774e-015
lhumerus -26.3022 -0.573239 84.2579
lradius 23.7463
lwrist -2.08397
lhand -20.8632 -11.5568
lfingers 7.12502
lthumb 5.50647 18.3516
rfemur -22.9475 5.49137 20.8164
rtibia 8.59018
rfoot -20.7864 -4.74823
rtoes -14.5852
lfemur -23.5984 -9.09367 -21.0242
ltibia 11.1829
lfoot -8.88869 -0.571117
ltoes -18.0803
115
root 16.6331 19.6515 20.6135 -155.052 -3.14241 178.346
lowerback -29.0765 -1.58953 -6.5439
upperback -0.134906 -0.361085 0.183271
thorax 15.2993 -0.836281 3.58274
lowerneck -4.8031 -0.860447 -0.217644
upperneck 18.5713 -2.69182 2.73817
head 6.46701 -1.50651 0.676303
rclavicle -2.98177e-015 7.35503e-015
rhumerus -32.9605 -16.7621 -79.0465
rradius 31.1332
rwrist -2.03529
rhand -9.13142 -49.6682
rfingers 7.12502
rthumb 16.8199 -78.9597
lclavicle -2.98177e-015 7.35503e-015
lhumerus -26.446 -0.962423 84.3343
lradius 24.1363
lwrist -1.83676
lhand -21.0177 -11.4036
lfingers 7.12502
lthumb 5.35731 18.5087
rfemur -22.8977 5.49396 20.8812
rtibia 8.73691
rfoot -20.8499 -4.82945
rtoes -14.7615
lfemur -23.6299 -9.05181 -21.0193
ltibia 11.4836
lfoot -8.95924 -0.66512
ltoes -18.2309
116
root 16.6358 19.653 20.6204 -155.18 -3.21011 178.29
lowerback -28.826 -1.59358 -6.54485
upperback -0.116028 -0.369334 0.15018
thorax 15.2047 -0.832362 3.54764
lowerneck -4.71608 -0.821128 -0.149195
upperneck 19.0896 -2.71759 2.63233
head 6.61584 -1.54494 0.625317
rclavicle -2.73329e-015 -2.62396e-014
rhumerus -33.0345 -16.575 -79.1251
rradius 31.4327
rwrist -1.96072
rhand -8.46243 -51.2289
rfingers 7.12502
rthumb 17.4638 -80.4644
lclavicle -2.73329e-015 -2.62396e-014
lhumerus -26.4941 -1.08279 84.3058
lradius 24.3106
lwrist -1.79487
lhand -21.1646 -11.4443
lfingers 7.12502
lthumb 5.21539 18.4715
rfemur -22.8977 5.64911 20.8235
rtibia 9.00742
rfoot -20.9648 -5.05731
rtoes -14.3964
lfemur -23.6599 -9.14667 -21.0715
ltibia 11.7963
lfoot -9.09448 -0.713552
ltoes -18.6085
117
root 16.6365 19.6543 20.6298 -155.241 -3.24489 178.25
lowerback -28.614 -1.57501 -6.49906
upperback -0.110844 -0.363817 0.114576
thorax 15.1102 -0.819801 3.48904
lowerneck -4.6451 -0.844981 -0.162619
upperneck 19.5276 -2.85514 2.74157
head 6.74809 -1.62504 0.648887
rclavicle 1.15295e-014 -2.34566e-014
rhumerus -33.0577 -16.3654 -79.1678
rradius 31.5019
rwrist -1.97484
rhand -8.11306 -51.9102
rfingers 7.12502
rthumb 17.8001 -81.1155
lclavicle 1.15295e-014 -2.34566e-014
lhumerus -26.5257 -0.964653 84.2007
lradius 24.3773
lwrist -2.03044
lhand -21.2165 -11.6807
lfingers 7.12502
lthumb 5.16529 18.2363
rfemur -23.0129 5.80492 20.7493
rtibia 9.31673
rfoot -21.0877 -5.26323
rtoes -14.0604
lfemur -23.8268 -9.28039 -21.1011
ltibia 12.1951
lfoot -9.2956 -0.634042
ltoes -19.1899
118
root 16.6356 19.6525 20.6389 -155.157 -3.18655 178.319
lowerback -28.6501 -1.48113 -6.39887
upperback -0.0808998 -0.268763 0.133832
thorax 15.1535 -0.771552 3.49344
lowerneck -4.37919 -0.662437 -0.417433
upperneck 19.4507 -2.65416 3.12993
head 6.68049 -1.52421 0.83291
rclavicle -2.73329e-016 -4.37326e-015
rhumerus -32.9051 -16.282 -79.1153
rradius 31.3825
rwrist -1.94343
rhand -8.15188 -51.9182
rfingers 7.12502
rthumb 17.7627 -81.1269
lclavicle -2.73329e-016 -4.37326e-015
lhumerus -26.5674 -1.11917 84.2116
lradius 24.6155
lwrist -2.06445
lhand -21.3037 -11.5383
lfingers 7.12502
lthumb 5.08113 18.3808
rfemur -23.3152 5.94024 20.7745
rtibia 9.61591
rfoot -21.1468 -5.33531
rtoes -14.4239
lfemur -24.2488 -9.33359 -21.0018
ltibia 12.7502
lfoot -9.51645 -0.511995
ltoes -18.9613
119
root 16.6349 19.6512 20.6449 -155.145 -3.14967 178.399
lowerback -28.6576 -1.38013 -6.27566
upperback -0.0147549 -0.1665 0.148807
thorax 15.2257 -0.717653 3.48465
lowerneck -4.1919 -0.437281 -0.595789
upperneck 19.4108 -2.37097 3.36796
head 6.63281 -1.38697 0.960531
rclavicle 2.95692e-015 -1.23246e-014
rhumerus -32.7388 -16.2583 -79.1041
rradius 31.4249
rwrist -1.9315
rhand -8.11123 -52.9021
rfingers 7.12502
rthumb 17.8018 -82.1072
lclavicle 2.95692e-015 -1.23246e-014
lhumerus -26.6783 -1.43329 84.2789
lradius 25.0755
lwrist -1.79144
lhand -21.3359 -11.1574
lfingers 7.12502
lthumb 5.05004 18.7624
rfemur -23.5114 5.96313 20.847
rtibia 9.89421
rfoot -21.2082 -5.31355
rtoes -14.7884
lfemur -24.5495 -9.39698 -20.8912
ltibia 13.2705
lfoot -9.74235 -0.414126
ltoes -18.935
120
root 16.6328 19.6527 20.651 -155.285 -3.23087 178.359
lowerback -28.4377 -1.36753 -6.21044
upperback 0.0525146 -0.166547 0.13021
thorax 15.2018 -0.706656 3.43276
lowerneck -4.25138 -0.447826 -0.334758
upperneck 19.9028 -2.42026 2.9857
head 6.79622 -1.43717 0.786942
rclavicle -6.48535e-015 2.56432e-014
rhumerus -32.7064 -16.0784 -79.1719
rradius 31.6504
rwrist -2.02428
rhand -8.03407 -53.7537
rfingers 7.12502
rthumb 17.8761 -82.9521
lclavicle -6.48535e-015 2.56432e-014
lhumerus -26.7875 -1.53869 84.2942
lradius 25.3822
lwrist -1.61485
lhand -21.3223 -10.9023
lfingers 7.12502
lthumb 5.06313 19.0172
rfemur -23.4862 5.82203 20.7972
rtibia 10.1014
rfoot -21.3416 -5.26538
rtoes -14.597
lfemur -24.6566 -9.57849 -20.916
ltibia 13.7318
lfoot -9.99417 -0.344101
ltoes -19.8427
121
root 16.6346 19.6524 20.6627 -155.311 -3.29609 178.257
lowerback -28.2787 -1.38609 -6.26033
upperback 0.0980035 -0.169761 0.100194
thorax 15.1797 -0.707001 3.42845
lowerneck -4.23815 -0.448787 -0.0662519
upperneck 20.5155 -2.47098 2.53617
head 6.9854 -1.50162 0.588354
rclavicle 2.60905e-015 9.14409e-015
rhumerus -32.6854 -15.9383 -79.2089
rradius 31.8407
rwrist -2.19043
rhand -7.86706 -53.844
rfingers 7.12502
rthumb 18.0368 -83.0277
lclavicle 2.60905e-015 9.14409e-015
lhumerus -26.7773 -1.63222 84.2749
lradius 25.4733
lwrist -1.53499
lhand -21.5571 -10.7926
lfingers 7.12502
lthumb 4.83641 19.1322
rfemur -23.6357 5.61647 20.7374
rtibia 10.3798
rfoot -21.4505 -5.13483
rtoes -14.1808
lfemur -24.9853 -9.44399 -21.0488
ltibia 14.3566
lfoot -10.1977 -0.610312
ltoes -20.023
122
root 16.6341 19.6511 20.6744 -155.289 -3.34397 178.235
lowerback -28.1392 -1.34312 -6.16651
upperback 0.0780084 -0.147769 0.0624724
thorax 15.0877 -0.685138 3.3458
lowerneck -4.08243 -0.403527 -0.0356484
upperneck 20.9738 -2.49883 2.48656
head 7.1064 -1.54301 0.561511
rclavicle -1.16041e-014 -3.97569e-015
rhumerus -32.8698 -15.5526 -79.2657
rradius 32.1254
rwrist -2.6909
rhand -8.19806 -53.3491
rfingers 7.12502
rthumb 17.7183 -82.5618
lclavicle -1.16041e-014 -3.97569e-015
lhumerus -26.8984 -1.73596 84.2193
lradius 25.6392
lwrist -1.45168
lhand -21.5606 -11.0423
lfingers 7.12502
lthumb 4.83303 18.8826
rfemur -23.8846 5.31664 20.7773
rtibia 10.7291
rfoot -21.5166 -4.90468
rtoes -14.0074
lfemur -25.4085 -9.32958 -21.098
ltibia 15.0618
lfoot -10.4187 -0.800396
ltoes -20.4504
123
root 16.6294 19.6452 20.6873 -155.065 -3.2827 178.29
lowerback -28.1398 -1.19632 -5.9219
upperback -0.0282389 -0.0405138 -0.0186907
thorax 14.9532 -0.616143 3.16317
lowerneck -4.01261 -0.505468 -0.00248166
upperneck 21.2198 -2.7372 2.64663
head 7.18013 -1.65776 0.587816
rclavicle 4.72114e-015 -6.16232e-015
rhumerus -33.1748 -15.1961 -79.3448
rradius 32.4641
rwrist -3.19274
rhand -8.70347 -52.7931
rfingers 7.12502
rthumb 17.2319 -82.0491
lclavicle 4.72114e-015 -6.16232e-015
lhumerus -27.0691 -1.91381 84.1233
lradius 25.8591
lwrist -1.26252
lhand -21.2471 -11.552
lfingers 7.12502
lthumb 5.13574 18.3658
rfemur -24.4586 5.18419 20.8208
rtibia 11.2341
rfoot -21.6359 -4.70944
rtoes -14.0875
lfemur -26.0776 -9.29872 -21.0375
ltibia 15.8146
lfoot -10.6588 -0.804718
ltoes -21.2876
